Blitz is a 2011 film directed by Elliott Lester and starring Jason Statham, Paddy Considine, Aidan Gillen and David Morrissey. It is based on the novel of the same name by Ken Bruen, which features his recurring characters Detective Sergeant Tom Brant and Chief Inspector James Roberts.

QUALITY:  PERFECT 10/10

All details are here: 

Format  | AVI           Language | ENGLISH  
Source  | DVD PAL       Subs     | NONE 

QUALITY:  PERFECT 10/10

- Video
ID                               : 0
Format                           : MPEG-4 Visual
Format profile                   : Advanced Simple@L5
Format settings, BVOP            : Yes
Format settings, QPel            : No
Format settings, GMC             : No warppoints
Format settings, Matrix          : Default (H.263)
Muxing mode                      : Packed bitstream
Codec ID                         : XVID
Codec ID/Hint                    : XviD
Bit rate                         : 1 345 Kbps
Width                            : 720 pixels
Height                           : 314 pixels
Display aspect ratio             : 2.25:1
Frame rate                       : 29.970 fps
Color space                      : YUV
Chroma subsampling               : 4:2:0
Bit depth                        : 8 bits
Scan type                        : Progressive
Compression mode                 : Lossy
Bits/(Pixel*Frame)               : 0.198
Stream size                      : 1.19 GiB (87%)
Writing library                  : XviD 1.1.0 (UTC 2005-11-22)

- Audio
ID                               : 1
Format                           : AC-3
Format/Info                      : Audio Coding 3
Mode extension                   : CM (complete main)
Codec ID                         : 2000
Bit rate mode                    : Constant
Bit rate                         : 192 Kbps
Channel(s)                       : 2 channels
Channel positions                : Front: L R
Sampling rate                    : 48.0 KHz
Bit depth                        : 16 bits
Compression mode                 : Lossy
Stream size                      : 175 MiB (12%)
Alignment                        : Aligned on interleaves
Interleave, duration             : 33 ms (1.00 video frame)
Interleave, preload duration     : 512 ms	

